# xmcd
# Track frame offsets:
# 150
# 19425
# 35214
# 45896
# 60633
# 77594
# 93977
# 107866
# 122245
# 131066
# 146336
# 161559
# 171540
# 186748
# 202336
#
# Disc length: 2929 seconds
# Revision: 0
# Processed by: cddbd v1.5.1PL0 Copyright (c) Steve Scherf et al.
# Submitted via: VisiTrax 2.9.10.220 - For more info visit www.synapsa.com
#
DISCID=e30b6f0f
DTITLE=Steve Earle - Transcendental Blues
DYEAR=2000
DGENRE=Country
TTITLE0=Trancendental Blues
TTITLE1=Everyone's in Love with You
TTITLE2=Another Town
TTITLE3=I Can Wait
TTITLE4=The Boy Who Never Cried
TTITLE5=Steve's Last Ramble
TTITLE6=The Galway Girl
TTITLE7=Lonelier Than This
TTITLE8=Wherever I Go
TTITLE9=When I Fall
TTITLE10=I Don't Want to Lose You Yet
TTITLE11=Halo 'Round the Moon
TTITLE12=Until the Day I Die
TTITLE13=All My Life
TTITLE14=Over Yonder (Jonathan's Song)
EXTD=
EXTT0=
EXTT1=
EXTT2=
EXTT3=
EXTT4=
EXTT5=
EXTT6=
EXTT7=
EXTT8=
EXTT9=
EXTT10=
EXTT11=
EXTT12=
EXTT13=
EXTT14=
PLAYORDER=
